<svg xmlns="http://www.w3.org/2000/svg" stroke="white" stroke-width="2" viewBox="0 0 16 16" focusable="false" aria-hidden="true"><path d="M13.33 5.792a1.942 1.942 0 0 1 .287-1.97 6.984 6.984 0 0 0-1.44-1.439 1.943 1.943 0 0 1-3.159-1.308 6.965 6.965 0 0 0-2.037 0 1.943 1.943 0 0 1-3.158 1.308 6.962 6.962 0 0 0-1.44 1.44 1.943 1.943 0 0 1-1.308 3.158 6.972 6.972 0 0 0 0 2.037 1.943 1.943 0 0 1 1.308 3.159 6.952 6.952 0 0 0 1.44 1.44 1.942 1.942 0 0 1 3.159 1.308 6.962 6.962 0 0 0 2.036 0 1.942 1.942 0 0 1 3.159-1.308 6.974 6.974 0 0 0 1.44-1.44 1.943 1.943 0 0 1 1.308-3.159 6.974 6.974 0 0 0 0-2.037 1.942 1.942 0 0 1-1.596-1.189Z" fill="#252F3E" ></path><circle cx="8" cy="8" r="2" stroke="white"></circle></svg>